<svg xmlns="http://www.w3.org/2000/svg" version="1.1" xmlns:xlink="http://www.w3.org/1999/xlink" xmlns:svgjs="http://svgjs.com/svgjs" width="1920" height="1080" preserveAspectRatio="none" viewBox="0 0 1920 1080"><g mask="url(&quot;#SvgjsMask1050&quot;)" fill="none"><rect width="1920" height="1080" x="0" y="0" fill="rgba(0, 16, 17, 1)"></rect><path d="M -1024.5993769786328,765 C -896.6,696.4 -640.6,412.2 -384.5993769786328,422 C -128.6,431.8 -0.6,835.6 255.4006230213672,814 C 511.4,792.4 639.4,366.6 895.4006230213672,314 C 1151.4,261.4 1330.48,583.6 1535.4006230213672,551 C 1740.32,518.4 1843.08,231 1920,151" stroke="rgba(229, 149, 0, 1)" stroke-width="2"></path><path d="M -229.6548345936472,555 C -101.65,449.2 154.35,2.8 410.3451654063528,26 C 666.35,49.2 794.35,651.4 1050.3451654063529,671 C 1306.35,690.6 1434.35,43 1690.3451654063529,124 C 1946.35,205 2284.41,1033 2330.345165406353,1076 C 2376.28,1119 2002.07,486.4 1920,339" stroke="rgba(69, 105, 144, 1)" stroke-width="2"></path><path d="M -108.14691661151323,662 C 19.85,569.8 275.85,128.6 531.8530833884868,201 C 787.85,273.4 915.85,986.2 1171.8530833884868,1024 C 1427.85,1061.8 1555.85,446.8 1811.8530833884868,390 C 2067.85,333.2 2430.22,734.8 2451.853083388487,740 C 2473.48,745.2 2026.37,480.8 1920,416" stroke="rgba(69, 105, 144, 1)" stroke-width="2"></path><path d="M -1024.737560407245,239 C -896.74,355.8 -640.74,789 -384.7375604072448,823 C -128.74,857 -0.74,435 255.2624395927552,409 C 511.26,383 639.26,752.8 895.2624395927552,693 C 1151.26,633.2 1330.31,92 1535.262439592755,110 C 1740.21,128 1843.05,648.4 1920,783" stroke="rgba(255, 102, 99, 1)" stroke-width="2"></path><path d="M -477.0019929636689,248 C -349,363 -93,854.8 162.9980070363311,823 C 419,791.2 547,41.2 802.998007036331,89 C 1059,136.8 1187,975.8 1442.998007036331,1062 C 1699,1148.2 1987.6,615.8 2082.9980070363313,520 C 2178.4,424.2 1952.6,570.4 1920,583" stroke="rgba(255, 102, 99, 1)" stroke-width="2"></path><path d="M -817.9985652580413,605 C -690,492 -434,52.8 -177.9985652580413,40 C 78,27.2 206,498.2 462.0014347419587,541 C 718,583.8 846,211 1102.0014347419587,254 C 1358,297 1578.4,753.2 1742.0014347419587,756 C 1905.6,758.8 1884.4,365.6 1920,268" stroke="rgba(255, 102, 99, 1)" stroke-width="2"></path><path d="M -1143.8755505708118,884 C -1015.88,761.8 -759.88,319 -503.8755505708117,273 C -247.88,227 -119.88,683.6 136.1244494291883,654 C 392.12,624.4 520.12,79.6 776.1244494291883,125 C 1032.12,170.4 1187.35,798.2 1416.1244494291882,881 C 1644.9,963.8 1819.22,607.4 1920,539" stroke="rgba(69, 105, 144, 1)" stroke-width="2"></path><path d="M -408.0780703901995,1063 C -280.08,912.4 -24.08,365 231.92192960980051,310 C 487.92,255 615.92,768 871.9219296098005,788 C 1127.92,808 1255.92,359.6 1511.9219296098006,410 C 1767.92,460.4 2070.31,1028.8 2151.9219296098004,1040 C 2233.54,1051.2 1966.38,580.8 1920,466" stroke="rgba(69, 105, 144, 1)" stroke-width="2"></path><path d="M -288.1912882046356,428 C -160.19,552.2 95.81,1054.8 351.8087117953644,1049 C 607.81,1043.2 735.81,418.2 991.8087117953644,399 C 1247.81,379.8 1375.81,943.8 1631.8087117953644,953 C 1887.81,962.2 2214.17,498.4 2271.8087117953646,445 C 2329.45,391.6 1990.36,637.8 1920,686" stroke="rgba(229, 149, 0, 1)" stroke-width="2"></path><path d="M -1193.1548355670698,1047 C -1065.15,844.2 -809.15,99.2 -553.1548355670698,33 C -297.15,-33.2 -169.15,701.6 86.84516443293023,716 C 342.85,730.4 470.85,78.6 726.8451644329302,105 C 982.85,131.4 1128.21,784.2 1366.8451644329302,848 C 1605.48,911.8 1809.37,508.8 1920,424" stroke="rgba(229, 149, 0, 1)" stroke-width="2"></path></g><defs><mask id="SvgjsMask1050"><rect width="1920" height="1080" fill="#ffffff"></rect></mask></defs></svg>